<?xml version="1.0" encoding="UTF-8" standalone="no"?>
<!-- Created with Inkscape (http://www.inkscape.org/) -->

<svg
   xmlns:dc="http://purl.org/dc/elements/1.1/"
   xmlns:cc="http://creativecommons.org/ns#"
   xmlns:rdf="http://www.w3.org/1999/02/22-rdf-syntax-ns#"
   xmlns:svg="http://www.w3.org/2000/svg"
   xmlns="http://www.w3.org/2000/svg"
   xmlns:sodipodi="http://sodipodi.sourceforge.net/DTD/sodipodi-0.dtd"
   xmlns:inkscape="http://www.inkscape.org/namespaces/inkscape"
   width="244.98425"
   height="307.8425"
   id="svg3010"
   version="1.1"
   inkscape:version="0.48.0 r9654"
   sodipodi:docname="Traffic-lights.svg">
  <defs
     id="defs3" />
  <sodipodi:namedview
     inkscape:document-units="mm"
     id="base"
     pagecolor="#ffffff"
     bordercolor="#666666"
     borderopacity="1.0"
     inkscape:pageopacity="0.0"
     inkscape:pageshadow="2"
     inkscape:zoom="1.4"
     inkscape:cx="237.771"
     inkscape:cy="130.42882"
     inkscape:current-layer="layer1"
     showgrid="false"
     units="mm"
     inkscape:window-width="1920"
     inkscape:window-height="933"
     inkscape:window-x="-8"
     inkscape:window-y="-8"
     inkscape:window-maximized="1" />
  <metadata
     id="metadata4">
    <rdf:RDF>
      <cc:Work
         rdf:about="">
        <dc:format>image/svg+xml</dc:format>
        <dc:type
           rdf:resource="http://purl.org/dc/dcmitype/StillImage" />
        <dc:title></dc:title>
      </cc:Work>
    </rdf:RDF>
  </metadata>
  <g
     inkscape:label="Layer 1"
     inkscape:groupmode="layer"
     id="layer1"
     transform="translate(0,-744.51967)">
    <g
       id="red-id"
       transform="translate(-41.436462,674.29301)"
       inkscape:label="red-label">
      
      <rect
         ry="23.582197"
         y="93.790779"
         x="110.07613"
         height="260.71426"
         width="107.70492"
         id="rect3016"
         style="fill:#666666;fill-opacity:1;stroke:none" />
      <path
         transform="matrix(0.65977443,0,0,0.65977443,133.76747,142.19169)"
         d="m 100,118.79076 c 0,29.98117 -24.304542,54.28571 -54.285713,54.28571 -29.981172,0 -54.2857134,-24.30454 -54.2857134,-54.28571 0,-29.981175 24.3045414,-54.285717 54.2857134,-54.285717 C 75.695458,64.505043 100,88.809585 100,118.79076 z"
         sodipodi:ry="54.285713"
         sodipodi:rx="54.285713"
         sodipodi:cy="118.79076"
         sodipodi:cx="45.714287"
         id="path3020"
         style="fill:#333333;fill-opacity:1;stroke:none"
         sodipodi:type="arc" />
      <path
         transform="matrix(0.65977443,0,0,0.65977443,133.76747,222.33376)"
         d="m 100,118.79076 c 0,29.98117 -24.304542,54.28571 -54.285713,54.28571 -29.981172,0 -54.2857134,-24.30454 -54.2857134,-54.28571 0,-29.981175 24.3045414,-54.285717 54.2857134,-54.285717 C 75.695458,64.505043 100,88.809585 100,118.79076 z"
         sodipodi:ry="54.285713"
         sodipodi:rx="54.285713"
         sodipodi:cy="118.79076"
         sodipodi:cx="45.714287"
         id="path3020-8"
         style="fill:#333333;fill-opacity:1;stroke:none"
         sodipodi:type="arc" />
      <path
         transform="matrix(0.65977443,0,0,0.65977443,133.76747,57.78328)"
         d="m 100,118.79076 c 0,29.98117 -24.304542,54.28571 -54.285713,54.28571 -29.981172,0 -54.2857134,-24.30454 -54.2857134,-54.28571 0,-29.981175 24.3045414,-54.285717 54.2857134,-54.285717 C 75.695458,64.505043 100,88.809585 100,118.79076 z"
         sodipodi:ry="54.285713"
         sodipodi:rx="54.285713"
         sodipodi:cy="118.79076"
         sodipodi:cx="45.714287"
         id="path3020-8-0"
         style="fill:#ab0000;fill-opacity:1;stroke:none"
         sodipodi:type="arc" />
		 		     <animate
      id="frame1"
      attributeName="display"
      values="inline;none;none;none"
      keyTimes="0;0.33;0.66;1"
      dur="30s"
      begin="10s"
      repeatCount="indefinite" />
    </g>
    <g
       id="orange-id"
       transform="translate(-294.29361,674.29301)"
       inkscape:label="orange-label">
      
      <rect
         ry="23.582197"
         y="93.790779"
         x="362.93329"
         height="260.71426"
         width="107.70492"
         id="rect3016-5"
         style="fill:#666666;fill-opacity:1;stroke:none" />
      <path
         transform="matrix(0.65977443,0,0,0.65977443,386.62462,142.19169)"
         d="m 100,118.79076 c 0,29.98117 -24.304542,54.28571 -54.285713,54.28571 -29.981172,0 -54.2857134,-24.30454 -54.2857134,-54.28571 0,-29.981175 24.3045414,-54.285717 54.2857134,-54.285717 C 75.695458,64.505043 100,88.809585 100,118.79076 z"
         sodipodi:ry="54.285713"
         sodipodi:rx="54.285713"
         sodipodi:cy="118.79076"
         sodipodi:cx="45.714287"
         id="path3020-3"
         style="fill:#c97200;fill-opacity:1;stroke:none"
         sodipodi:type="arc" />
      <path
         transform="matrix(0.65977443,0,0,0.65977443,386.62462,222.33376)"
         d="m 100,118.79076 c 0,29.98117 -24.304542,54.28571 -54.285713,54.28571 -29.981172,0 -54.2857134,-24.30454 -54.2857134,-54.28571 0,-29.981175 24.3045414,-54.285717 54.2857134,-54.285717 C 75.695458,64.505043 100,88.809585 100,118.79076 z"
         sodipodi:ry="54.285713"
         sodipodi:rx="54.285713"
         sodipodi:cy="118.79076"
         sodipodi:cx="45.714287"
         id="path3020-8-5"
         style="fill:#333333;fill-opacity:1;stroke:none"
         sodipodi:type="arc" />
      <path
         transform="matrix(0.65977443,0,0,0.65977443,386.62462,57.783281)"
         d="m 100,118.79076 c 0,29.98117 -24.304542,54.28571 -54.285713,54.28571 -29.981172,0 -54.2857134,-24.30454 -54.2857134,-54.28571 0,-29.981175 24.3045414,-54.285717 54.2857134,-54.285717 C 75.695458,64.505043 100,88.809585 100,118.79076 z"
         sodipodi:ry="54.285713"
         sodipodi:rx="54.285713"
         sodipodi:cy="118.79076"
         sodipodi:cx="45.714287"
         id="path3020-8-0-1"
         style="fill:#ab0000;fill-opacity:1;stroke:none"
         sodipodi:type="arc" />
		 		     <animate
      id="frame2"
      attributeName="display"
      values="none;inline;none;none"
      keyTimes="0;0.33;0.66;1"
      dur="30s"
      begin="10s"
      repeatCount="indefinite" />
    </g>
    <g
       id="green-id"
       transform="translate(-547.50787,673.93588)"
       inkscape:label="green-label">
      
      <rect
         ry="23.582197"
         y="94.147903"
         x="616.14752"
         height="260.71426"
         width="107.70492"
         id="rect3016-5-8"
         style="fill:#666666;fill-opacity:1;stroke:none" />
      <path
         transform="matrix(0.65977443,0,0,0.65977443,639.83888,142.54882)"
         d="m 100,118.79076 c 0,29.98117 -24.304542,54.28571 -54.285713,54.28571 -29.981172,0 -54.2857134,-24.30454 -54.2857134,-54.28571 0,-29.981175 24.3045414,-54.285717 54.2857134,-54.285717 C 75.695458,64.505043 100,88.809585 100,118.79076 z"
         sodipodi:ry="54.285713"
         sodipodi:rx="54.285713"
         sodipodi:cy="118.79076"
         sodipodi:cx="45.714287"
         id="path3020-3-5"
         style="fill:#333333;fill-opacity:1;stroke:none"
         sodipodi:type="arc" />
      <path
         transform="matrix(0.65977443,0,0,0.65977443,639.83888,222.69089)"
         d="m 100,118.79076 c 0,29.98117 -24.304542,54.28571 -54.285713,54.28571 -29.981172,0 -54.2857134,-24.30454 -54.2857134,-54.28571 0,-29.981175 24.3045414,-54.285717 54.2857134,-54.285717 C 75.695458,64.505043 100,88.809585 100,118.79076 z"
         sodipodi:ry="54.285713"
         sodipodi:rx="54.285713"
         sodipodi:cy="118.79076"
         sodipodi:cx="45.714287"
         id="path3020-8-5-0"
         style="fill:#00b700;fill-opacity:1;stroke:none"
         sodipodi:type="arc" />
      <path
         transform="matrix(0.65977443,0,0,0.65977443,639.83888,58.140408)"
         d="m 100,118.79076 c 0,29.98117 -24.304542,54.28571 -54.285713,54.28571 -29.981172,0 -54.2857134,-24.30454 -54.2857134,-54.28571 0,-29.981175 24.3045414,-54.285717 54.2857134,-54.285717 C 75.695458,64.505043 100,88.809585 100,118.79076 z"
         sodipodi:ry="54.285713"
         sodipodi:rx="54.285713"
         sodipodi:cy="118.79076"
         sodipodi:cx="45.714287"
         id="path3020-8-0-1-4"
         style="fill:#333333;fill-opacity:1;stroke:none"
         sodipodi:type="arc" />
		     <animate
      id="frame3"
      attributeName="display"
      values="none;none;inline;none"
      keyTimes="0;0.33;0.66;1"
      dur="30s"
      begin="10s"
      repeatCount="indefinite" />		 
    </g>
  </g>
</svg>
